<svg id="visual" viewBox="0 0 900 450" width="900" height="450" xmlns="http://www.w3.org/2000/svg" xmlns:xlink="http://www.w3.org/1999/xlink" version="1.1"><rect x="0" y="0" width="900" height="450" fill="#001122"></rect><defs><linearGradient id="grad1_0" x1="50%" y1="100%" x2="100%" y2="0%"><stop offset="10%" stop-color="#7815a9" stop-opacity="1"></stop><stop offset="90%" stop-color="#7815a9" stop-opacity="1"></stop></linearGradient></defs><defs><linearGradient id="grad1_1" x1="50%" y1="100%" x2="100%" y2="0%"><stop offset="10%" stop-color="#7815a9" stop-opacity="1"></stop><stop offset="90%" stop-color="#56259c" stop-opacity="1"></stop></linearGradient></defs><defs><linearGradient id="grad1_2" x1="50%" y1="100%" x2="100%" y2="0%"><stop offset="10%" stop-color="#362a8c" stop-opacity="1"></stop><stop offset="90%" stop-color="#56259c" stop-opacity="1"></stop></linearGradient></defs><defs><linearGradient id="grad1_3" x1="50%" y1="100%" x2="100%" y2="0%"><stop offset="10%" stop-color="#362a8c" stop-opacity="1"></stop><stop offset="90%" stop-color="#15297a" stop-opacity="1"></stop></linearGradient></defs><defs><linearGradient id="grad1_4" x1="50%" y1="100%" x2="100%" y2="0%"><stop offset="10%" stop-color="#002665" stop-opacity="1"></stop><stop offset="90%" stop-color="#15297a" stop-opacity="1"></stop></linearGradient></defs><defs><linearGradient id="grad1_5" x1="50%" y1="100%" x2="100%" y2="0%"><stop offset="10%" stop-color="#002665" stop-opacity="1"></stop><stop offset="90%" stop-color="#00204e" stop-opacity="1"></stop></linearGradient></defs><defs><linearGradient id="grad1_6" x1="50%" y1="100%" x2="100%" y2="0%"><stop offset="10%" stop-color="#001a38" stop-opacity="1"></stop><stop offset="90%" stop-color="#00204e" stop-opacity="1"></stop></linearGradient></defs><defs><linearGradient id="grad1_7" x1="50%" y1="100%" x2="100%" y2="0%"><stop offset="10%" stop-color="#001a38" stop-opacity="1"></stop><stop offset="90%" stop-color="#001122" stop-opacity="1"></stop></linearGradient></defs><defs><linearGradient id="grad2_0" x1="0%" y1="100%" x2="50%" y2="0%"><stop offset="10%" stop-color="#7815a9" stop-opacity="1"></stop><stop offset="90%" stop-color="#7815a9" stop-opacity="1"></stop></linearGradient></defs><defs><linearGradient id="grad2_1" x1="0%" y1="100%" x2="50%" y2="0%"><stop offset="10%" stop-color="#56259c" stop-opacity="1"></stop><stop offset="90%" stop-color="#7815a9" stop-opacity="1"></stop></linearGradient></defs><defs><linearGradient id="grad2_2" x1="0%" y1="100%" x2="50%" y2="0%"><stop offset="10%" stop-color="#56259c" stop-opacity="1"></stop><stop offset="90%" stop-color="#362a8c" stop-opacity="1"></stop></linearGradient></defs><defs><linearGradient id="grad2_3" x1="0%" y1="100%" x2="50%" y2="0%"><stop offset="10%" stop-color="#15297a" stop-opacity="1"></stop><stop offset="90%" stop-color="#362a8c" stop-opacity="1"></stop></linearGradient></defs><defs><linearGradient id="grad2_4" x1="0%" y1="100%" x2="50%" y2="0%"><stop offset="10%" stop-color="#15297a" stop-opacity="1"></stop><stop offset="90%" stop-color="#002665" stop-opacity="1"></stop></linearGradient></defs><defs><linearGradient id="grad2_5" x1="0%" y1="100%" x2="50%" y2="0%"><stop offset="10%" stop-color="#00204e" stop-opacity="1"></stop><stop offset="90%" stop-color="#002665" stop-opacity="1"></stop></linearGradient></defs><defs><linearGradient id="grad2_6" x1="0%" y1="100%" x2="50%" y2="0%"><stop offset="10%" stop-color="#00204e" stop-opacity="1"></stop><stop offset="90%" stop-color="#001a38" stop-opacity="1"></stop></linearGradient></defs><defs><linearGradient id="grad2_7" x1="0%" y1="100%" x2="50%" y2="0%"><stop offset="10%" stop-color="#001122" stop-opacity="1"></stop><stop offset="90%" stop-color="#001a38" stop-opacity="1"></stop></linearGradient></defs><g transform="translate(900, 450)"><path d="M-427.5 0C-401.4 -47.7 -375.4 -95.5 -358.5 -148.5C-341.5 -201.5 -333.7 -259.8 -302.3 -302.3C-270.9 -344.8 -215.8 -371.6 -161.5 -389.9C-107.2 -408.1 -53.6 -417.8 0 -427.5L0 0Z" fill="#00162d"></path><path d="M-374.1 0C-351.3 -41.8 -328.5 -83.5 -313.7 -129.9C-298.8 -176.3 -292 -227.3 -264.5 -264.5C-237 -301.7 -188.8 -325.2 -141.3 -341.1C-93.8 -357.1 -46.9 -365.6 0 -374.1L0 0Z" fill="#001d43"></path><path d="M-320.6 0C-301.1 -35.8 -281.5 -71.6 -268.8 -111.4C-256.1 -151.1 -250.3 -194.8 -226.7 -226.7C-203.1 -258.6 -161.9 -278.7 -121.1 -292.4C-80.4 -306.1 -40.2 -313.4 0 -320.6L0 0Z" fill="#00235a"></path><path d="M-267.2 0C-250.9 -29.8 -234.6 -59.7 -224 -92.8C-213.5 -125.9 -208.6 -162.3 -188.9 -188.9C-169.3 -215.5 -134.9 -232.3 -100.9 -243.7C-67 -255.1 -33.5 -261.1 0 -267.2L0 0Z" fill="#01286f"></path><path d="M-213.7 0C-200.7 -23.9 -187.7 -47.7 -179.2 -74.2C-170.8 -100.7 -166.9 -129.9 -151.1 -151.1C-135.4 -172.4 -107.9 -185.8 -80.7 -194.9C-53.6 -204.1 -26.8 -208.9 0 -213.7L0 0Z" fill="#262a83"></path><path d="M-160.3 0C-150.5 -17.9 -140.8 -35.8 -134.4 -55.7C-128.1 -75.6 -125.1 -97.4 -113.4 -113.4C-101.6 -129.3 -80.9 -139.4 -60.6 -146.2C-40.2 -153 -20.1 -156.7 0 -160.3L0 0Z" fill="#462895"></path><path d="M-106.9 0C-100.4 -11.9 -93.8 -23.9 -89.6 -37.1C-85.4 -50.4 -83.4 -64.9 -75.6 -75.6C-67.7 -86.2 -54 -92.9 -40.4 -97.5C-26.8 -102 -13.4 -104.5 0 -106.9L0 0Z" fill="#671fa3"></path><path d="M-53.4 0C-50.2 -6 -46.9 -11.9 -44.8 -18.6C-42.7 -25.2 -41.7 -32.5 -37.8 -37.8C-33.9 -43.1 -27 -46.5 -20.2 -48.7C-13.4 -51 -6.7 -52.2 0 -53.4L0 0Z" fill="#7815a9"></path></g><g transform="translate(0, 0)"><path d="M427.5 0C424.4 58.6 421.3 117.3 395 163.6C368.7 209.9 319.2 243.9 275.8 275.8C232.3 307.6 195 337.2 150 362.2C105.1 387.1 52.5 407.3 0 427.5L0 0Z" fill="#00162d"></path><path d="M374.1 0C371.3 51.3 368.6 102.6 345.6 143.1C322.6 183.7 279.3 213.5 241.3 241.3C203.3 269.2 170.6 295.1 131.3 316.9C91.9 338.7 46 356.4 0 374.1L0 0Z" fill="#001d43"></path><path d="M320.6 0C318.3 44 315.9 88 296.2 122.7C276.5 157.4 239.4 183 206.8 206.8C174.3 230.7 146.2 252.9 112.5 271.6C78.8 290.3 39.4 305.5 0 320.6L0 0Z" fill="#00235a"></path><path d="M267.2 0C265.2 36.6 263.3 73.3 246.8 102.2C230.4 131.2 199.5 152.5 172.4 172.4C145.2 192.3 121.9 210.8 93.8 226.4C65.7 241.9 32.8 254.6 0 267.2L0 0Z" fill="#01286f"></path><path d="M213.8 0C212.2 29.3 210.6 58.6 197.5 81.8C184.3 105 159.6 122 137.9 137.9C116.2 153.8 97.5 168.6 75 181.1C52.5 193.5 26.3 203.6 0 213.8L0 0Z" fill="#262a83"></path><path d="M160.3 0C159.1 22 158 44 148.1 61.3C138.2 78.7 119.7 91.5 103.4 103.4C87.1 115.4 73.1 126.5 56.3 135.8C39.4 145.2 19.7 152.7 0 160.3L0 0Z" fill="#462895"></path><path d="M106.9 0C106.1 14.7 105.3 29.3 98.7 40.9C92.2 52.5 79.8 61 68.9 68.9C58.1 76.9 48.7 84.3 37.5 90.5C26.3 96.8 13.1 101.8 0 106.9L0 0Z" fill="#671fa3"></path><path d="M53.4 0C53 7.3 52.7 14.7 49.4 20.4C46.1 26.2 39.9 30.5 34.5 34.5C29 38.5 24.4 42.2 18.8 45.3C13.1 48.4 6.6 50.9 0 53.4L0 0Z" fill="#7815a9"></path></g></svg>