<svg id="visual" viewBox="0 0 900 400" width="900" height="400" xmlns="http://www.w3.org/2000/svg" xmlns:xlink="http://www.w3.org/1999/xlink" version="1.1"><rect width="900" height="400" fill="#7815a9"></rect><g><g transform="translate(768 163)"><path d="M35.9 -43.9C44.9 -35.3 49.4 -22.4 49.2 -10.6C49 1.2 44 11.8 38.7 23.6C33.4 35.3 27.8 48.2 19.1 50.5C10.4 52.9 -1.5 44.8 -14.1 39.7C-26.8 34.7 -40.2 32.8 -47.3 25.1C-54.5 17.3 -55.3 3.7 -51.9 -8.1C-48.6 -19.9 -41 -29.9 -31.6 -38.5C-22.3 -47 -11.1 -54.2 1.2 -55.6C13.5 -57 26.9 -52.6 35.9 -43.9Z" fill="none" stroke="#001122" stroke-width="20"></path></g><g transform="translate(519 277)"><path d="M21.2 -24.6C28.5 -19.1 36.3 -13.4 39.4 -5.5C42.5 2.4 41 12.6 35.8 20C30.7 27.3 22 31.9 12.7 35.5C3.5 39.1 -6.3 41.7 -14.6 39.1C-22.9 36.5 -29.6 28.7 -32.8 20.3C-35.9 11.9 -35.6 2.8 -33.5 -5.4C-31.5 -13.7 -27.8 -21.2 -21.9 -27C-16.1 -32.8 -8 -36.9 -0.6 -36.3C6.9 -35.6 13.8 -30.2 21.2 -24.6Z" fill="none" stroke="#001122" stroke-width="20"></path></g><g transform="translate(406 108)"><path d="M11.3 -13.2C14.5 -10.9 16.7 -7.1 17.5 -3C18.4 1.1 17.9 5.6 16 9.5C14.1 13.4 10.7 16.8 6.7 18C2.8 19.2 -1.8 18.3 -6.7 17C-11.6 15.8 -16.8 14.3 -21.3 10.4C-25.7 6.6 -29.4 0.4 -27.8 -4.3C-26.2 -8.9 -19.4 -12 -13.9 -13.9C-8.4 -15.8 -4.2 -16.5 -0.1 -16.4C4.1 -16.3 8.2 -15.5 11.3 -13.2Z" fill="none" stroke="#001122" stroke-width="20"></path></g><g transform="translate(209 141)"><path d="M26.4 -31.8C33.6 -25.5 38.3 -16.5 40.3 -6.8C42.3 2.9 41.7 13.3 38 23.9C34.2 34.6 27.4 45.5 17.4 50.1C7.4 54.7 -5.7 53.1 -17.8 48.8C-29.9 44.4 -41.1 37.3 -45.6 27.3C-50.1 17.4 -48 4.7 -43.9 -5.8C-39.7 -16.2 -33.4 -24.3 -25.7 -30.4C-18.1 -36.6 -9 -40.8 0.3 -41.2C9.6 -41.5 19.3 -38 26.4 -31.8Z" fill="none" stroke="#001122" stroke-width="20"></path></g><g transform="translate(286 297)"><path d="M16.8 -20.8C20.3 -17.2 20.5 -10.4 20.3 -4.6C20.2 1.2 19.6 6.1 17.3 9.9C15.1 13.7 11 16.5 6.7 17.7C2.4 19 -2.2 18.8 -6.3 17.2C-10.3 15.7 -13.9 12.9 -16.3 9.2C-18.6 5.5 -19.8 0.9 -20 -4.6C-20.3 -10.1 -19.7 -16.5 -16.3 -20.1C-12.8 -23.7 -6.4 -24.5 0.2 -24.7C6.7 -24.9 13.4 -24.4 16.8 -20.8Z" fill="none" stroke="#001122" stroke-width="20"></path></g><g transform="translate(746 320)"><path d="M14.1 -15.8C17.9 -13.7 20.3 -8.8 21 -3.9C21.7 1.1 20.7 6.3 18.7 11.6C16.6 17 13.4 22.7 9 23.9C4.6 25.1 -1.1 22 -5.7 18.9C-10.4 15.9 -13.9 13 -17.8 9C-21.6 4.9 -25.8 -0.2 -25.8 -5.3C-25.8 -10.4 -21.5 -15.5 -16.5 -17.3C-11.5 -19.2 -5.7 -17.9 -0.3 -17.5C5.2 -17.2 10.4 -17.9 14.1 -15.8Z" fill="none" stroke="#001122" stroke-width="20"></path></g><g transform="translate(575 99)"><path d="M20.5 -25.6C25 -20.6 26.2 -12.7 27.3 -5C28.5 2.7 29.6 10.3 27.3 17.2C25 24.2 19.2 30.6 11.9 33.6C4.6 36.7 -4.3 36.4 -12.2 33.6C-20.2 30.7 -27.2 25.2 -32.7 17.8C-38.3 10.4 -42.5 1.1 -42 -8.4C-41.5 -17.9 -36.4 -27.5 -28.6 -32C-20.8 -36.5 -10.4 -35.8 -1.2 -34.4C8 -32.9 15.9 -30.7 20.5 -25.6Z" fill="none" stroke="#001122" stroke-width="20"></path></g><g transform="translate(100 232)"><path d="M11.4 -14.8C14.7 -10.8 17.4 -7.2 18.2 -3.1C19 0.9 18 5.4 16.1 9.8C14.1 14.2 11.2 18.6 7.2 20.4C3.1 22.2 -2.2 21.4 -7.6 19.9C-13 18.3 -18.5 16.1 -21 12C-23.5 7.9 -23 2 -21.6 -3.4C-20.2 -8.9 -17.9 -13.8 -14.2 -17.7C-10.4 -21.7 -5.2 -24.7 -0.6 -24C4 -23.3 8 -18.8 11.4 -14.8Z" fill="none" stroke="#001122" stroke-width="20"></path></g><g transform="translate(74 88)"><path d="M21 -23.9C27.1 -19.8 32.1 -13.2 32.4 -6.4C32.7 0.3 28.4 7.1 24.4 14C20.3 21 16.6 28.1 10.8 30.6C5 33.1 -2.7 31 -11.2 28.8C-19.7 26.6 -29 24.3 -31.9 18.7C-34.9 13 -31.6 4 -28.4 -3.5C-25.3 -11 -22.4 -17.1 -17.6 -21.5C-12.9 -25.8 -6.5 -28.6 0.5 -29.1C7.4 -29.7 14.8 -28.1 21 -23.9Z" fill="none" stroke="#001122" stroke-width="20"></path></g></g></svg>