<svg id="visual" viewBox="0 0 900 300" width="900" height="300" xmlns="http://www.w3.org/2000/svg" xmlns:xlink="http://www.w3.org/1999/xlink" version="1.1"><rect x="0" y="0" width="900" height="300" fill="#001122"></rect><path d="M0 225L90 208L180 239L270 210L360 269L450 235L540 230L630 237L720 271L810 208L900 224L900 0L810 0L720 0L630 0L540 0L450 0L360 0L270 0L180 0L90 0L0 0Z" fill="#001122"></path><path d="M0 216L90 178L180 237L270 204L360 196L450 174L540 236L630 203L720 236L810 195L900 236L900 0L810 0L720 0L630 0L540 0L450 0L360 0L270 0L180 0L90 0L0 0Z" fill="#001935"></path><path d="M0 153L90 190L180 150L270 154L360 177L450 185L540 164L630 156L720 184L810 170L900 203L900 0L810 0L720 0L630 0L540 0L450 0L360 0L270 0L180 0L90 0L0 0Z" fill="#001f49"></path><path d="M0 144L90 154L180 185L270 128L360 188L450 129L540 162L630 130L720 130L810 187L900 170L900 0L810 0L720 0L630 0L540 0L450 0L360 0L270 0L180 0L90 0L0 0Z" fill="#00245c"></path><path d="M0 128L90 103L180 154L270 159L360 157L450 109L540 122L630 108L720 114L810 147L900 138L900 0L810 0L720 0L630 0L540 0L450 0L360 0L270 0L180 0L90 0L0 0Z" fill="#01286f"></path><path d="M0 105L90 105L180 114L270 112L360 108L450 90L540 118L630 126L720 90L810 122L900 111L900 0L810 0L720 0L630 0L540 0L450 0L360 0L270 0L180 0L90 0L0 0Z" fill="#222a81"></path><path d="M0 71L90 83L180 74L270 89L360 69L450 100L540 85L630 92L720 97L810 85L900 85L900 0L810 0L720 0L630 0L540 0L450 0L360 0L270 0L180 0L90 0L0 0Z" fill="#3e2991"></path><path d="M0 70L90 50L180 43L270 52L360 63L450 66L540 60L630 59L720 45L810 74L900 53L900 0L810 0L720 0L630 0L540 0L450 0L360 0L270 0L180 0L90 0L0 0Z" fill="#5a249e"></path><path d="M0 35L90 25L180 25L270 45L360 31L450 27L540 32L630 44L720 44L810 21L900 40L900 0L810 0L720 0L630 0L540 0L450 0L360 0L270 0L180 0L90 0L0 0Z" fill="#7815a9"></path></svg>