<svg id="visual" viewBox="0 0 900 230" width="900" height="230" xmlns="http://www.w3.org/2000/svg" xmlns:xlink="http://www.w3.org/1999/xlink" version="1.1"><rect width="900" height="230" fill="#001122"></rect><g><g transform="translate(294 149)"><path d="M0 -53.2L46.1 -26.6L46.1 26.6L0 53.2L-46.1 26.6L-46.1 -26.6Z" stroke="#7815a9" fill="none" stroke-width="2"></path></g><g transform="translate(688 101)"><path d="M0 -37L32 -18.5L32 18.5L0 37L-32 18.5L-32 -18.5Z" stroke="#7815a9" fill="none" stroke-width="2"></path></g><g transform="translate(574 150)"><path d="M0 -25L21.7 -12.5L21.7 12.5L0 25L-21.7 12.5L-21.7 -12.5Z" stroke="#7815a9" fill="none" stroke-width="2"></path></g><g transform="translate(67 116)"><path d="M0 -21L18.2 -10.5L18.2 10.5L0 21L-18.2 10.5L-18.2 -10.5Z" stroke="#7815a9" fill="none" stroke-width="2"></path></g><g transform="translate(445 113)"><path d="M0 -15L13 -7.5L13 7.5L0 15L-13 7.5L-13 -7.5Z" stroke="#7815a9" fill="none" stroke-width="2"></path></g><g transform="translate(811 170)"><path d="M0 -26L22.5 -13L22.5 13L0 26L-22.5 13L-22.5 -13Z" stroke="#7815a9" fill="none" stroke-width="2"></path></g><g transform="translate(192 62)"><path d="M0 -49L42.4 -24.5L42.4 24.5L0 49L-42.4 24.5L-42.4 -24.5Z" stroke="#7815a9" fill="none" stroke-width="2"></path></g><g transform="translate(785 55)"><path d="M0 -22L19.1 -11L19.1 11L0 22L-19.1 11L-19.1 -11Z" stroke="#7815a9" fill="none" stroke-width="2"></path></g><g transform="translate(184 174)"><path d="M0 -21L18.2 -10.5L18.2 10.5L0 21L-18.2 10.5L-18.2 -10.5Z" stroke="#7815a9" fill="none" stroke-width="2"></path></g></g></svg>