<svg id="visual" viewBox="0 0 900 450" width="900" height="450" xmlns="http://www.w3.org/2000/svg" xmlns:xlink="http://www.w3.org/1999/xlink" version="1.1"><path d="M0 28L18.8 25.8C37.7 23.7 75.3 19.3 112.8 17.8C150.3 16.3 187.7 17.7 225.2 22.8C262.7 28 300.3 37 337.8 41.5C375.3 46 412.7 46 450.2 42.3C487.7 38.7 525.3 31.3 562.8 29.2C600.3 27 637.7 30 675.2 33.7C712.7 37.3 750.3 41.7 787.8 38.7C825.3 35.7 862.7 25.3 881.3 20.2L900 15L900 0L881.3 0C862.7 0 825.3 0 787.8 0C750.3 0 712.7 0 675.2 0C637.7 0 600.3 0 562.8 0C525.3 0 487.7 0 450.2 0C412.7 0 375.3 0 337.8 0C300.3 0 262.7 0 225.2 0C187.7 0 150.3 0 112.8 0C75.3 0 37.7 0 18.8 0L0 0Z" fill="#7815a9"></path><path d="M0 127L18.8 118.8C37.7 110.7 75.3 94.3 112.8 98.2C150.3 102 187.7 126 225.2 138C262.7 150 300.3 150 337.8 151.5C375.3 153 412.7 156 450.2 147.7C487.7 139.3 525.3 119.7 562.8 117.3C600.3 115 637.7 130 675.2 133.8C712.7 137.7 750.3 130.3 787.8 137.8C825.3 145.3 862.7 167.7 881.3 178.8L900 190L900 13L881.3 18.2C862.7 23.3 825.3 33.7 787.8 36.7C750.3 39.7 712.7 35.3 675.2 31.7C637.7 28 600.3 25 562.8 27.2C525.3 29.3 487.7 36.7 450.2 40.3C412.7 44 375.3 44 337.8 39.5C300.3 35 262.7 26 225.2 20.8C187.7 15.7 150.3 14.3 112.8 15.8C75.3 17.3 37.7 21.7 18.8 23.8L0 26Z" fill="#56259c"></path><path d="M0 172L18.8 162.3C37.7 152.7 75.3 133.3 112.8 134.2C150.3 135 187.7 156 225.2 171.7C262.7 187.3 300.3 197.7 337.8 201.3C375.3 205 412.7 202 450.2 193C487.7 184 525.3 169 562.8 163.8C600.3 158.7 637.7 163.3 675.2 163.3C712.7 163.3 750.3 158.7 787.8 166.8C825.3 175 862.7 196 881.3 206.5L900 217L900 188L881.3 176.8C862.7 165.7 825.3 143.3 787.8 135.8C750.3 128.3 712.7 135.7 675.2 131.8C637.7 128 600.3 113 562.8 115.3C525.3 117.7 487.7 137.3 450.2 145.7C412.7 154 375.3 151 337.8 149.5C300.3 148 262.7 148 225.2 136C187.7 124 150.3 100 112.8 96.2C75.3 92.3 37.7 108.7 18.8 116.8L0 125Z" fill="#362a8c"></path><path d="M0 249L18.8 249C37.7 249 75.3 249 112.8 247.5C150.3 246 187.7 243 225.2 252.7C262.7 262.3 300.3 284.7 337.8 288.3C375.3 292 412.7 277 450.2 276.3C487.7 275.7 525.3 289.3 562.8 287.8C600.3 286.3 637.7 269.7 675.2 261.3C712.7 253 750.3 253 787.8 260.5C825.3 268 862.7 283 881.3 290.5L900 298L900 215L881.3 204.5C862.7 194 825.3 173 787.8 164.8C750.3 156.7 712.7 161.3 675.2 161.3C637.7 161.3 600.3 156.7 562.8 161.8C525.3 167 487.7 182 450.2 191C412.7 200 375.3 203 337.8 199.3C300.3 195.7 262.7 185.3 225.2 169.7C187.7 154 150.3 133 112.8 132.2C75.3 131.3 37.7 150.7 18.8 160.3L0 170Z" fill="#152979"></path><path d="M0 294L18.8 295.5C37.7 297 75.3 300 112.8 303C150.3 306 187.7 309 225.2 316.5C262.7 324 300.3 336 337.8 337.5C375.3 339 412.7 330 450.2 335.2C487.7 340.3 525.3 359.7 562.8 357.3C600.3 355 637.7 331 675.2 320.5C712.7 310 750.3 313 787.8 319.8C825.3 326.7 862.7 337.3 881.3 342.7L900 348L900 296L881.3 288.5C862.7 281 825.3 266 787.8 258.5C750.3 251 712.7 251 675.2 259.3C637.7 267.7 600.3 284.3 562.8 285.8C525.3 287.3 487.7 273.7 450.2 274.3C412.7 275 375.3 290 337.8 286.3C300.3 282.7 262.7 260.3 225.2 250.7C187.7 241 150.3 244 112.8 245.5C75.3 247 37.7 247 18.8 247L0 247Z" fill="#002664"></path><path d="M0 312L18.8 314.2C37.7 316.3 75.3 320.7 112.8 322.8C150.3 325 187.7 325 225.2 334C262.7 343 300.3 361 337.8 363.3C375.3 365.7 412.7 352.3 450.2 355.3C487.7 358.3 525.3 377.7 562.8 375.3C600.3 373 637.7 349 675.2 341.5C712.7 334 750.3 343 787.8 352.8C825.3 362.7 862.7 373.3 881.3 378.7L900 384L900 346L881.3 340.7C862.7 335.3 825.3 324.7 787.8 317.8C750.3 311 712.7 308 675.2 318.5C637.7 329 600.3 353 562.8 355.3C525.3 357.7 487.7 338.3 450.2 333.2C412.7 328 375.3 337 337.8 335.5C300.3 334 262.7 322 225.2 314.5C187.7 307 150.3 304 112.8 301C75.3 298 37.7 295 18.8 293.5L0 292Z" fill="#00204e"></path><path d="M0 406L18.8 408.3C37.7 410.7 75.3 415.3 112.8 413.8C150.3 412.3 187.7 404.7 225.2 404.7C262.7 404.7 300.3 412.3 337.8 417.7C375.3 423 412.7 426 450.2 428.2C487.7 430.3 525.3 431.7 562.8 431.7C600.3 431.7 637.7 430.3 675.2 428.8C712.7 427.3 750.3 425.7 787.8 424.8C825.3 424 862.7 424 881.3 424L900 424L900 382L881.3 376.7C862.7 371.3 825.3 360.7 787.8 350.8C750.3 341 712.7 332 675.2 339.5C637.7 347 600.3 371 562.8 373.3C525.3 375.7 487.7 356.3 450.2 353.3C412.7 350.3 375.3 363.7 337.8 361.3C300.3 359 262.7 341 225.2 332C187.7 323 150.3 323 112.8 320.8C75.3 318.7 37.7 314.3 18.8 312.2L0 310Z" fill="#001a38"></path><path d="M0 451L18.8 451C37.7 451 75.3 451 112.8 451C150.3 451 187.7 451 225.2 451C262.7 451 300.3 451 337.8 451C375.3 451 412.7 451 450.2 451C487.7 451 525.3 451 562.8 451C600.3 451 637.7 451 675.2 451C712.7 451 750.3 451 787.8 451C825.3 451 862.7 451 881.3 451L900 451L900 422L881.3 422C862.7 422 825.3 422 787.8 422.8C750.3 423.7 712.7 425.3 675.2 426.8C637.7 428.3 600.3 429.7 562.8 429.7C525.3 429.7 487.7 428.3 450.2 426.2C412.7 424 375.3 421 337.8 415.7C300.3 410.3 262.7 402.7 225.2 402.7C187.7 402.7 150.3 410.3 112.8 411.8C75.3 413.3 37.7 408.7 18.8 406.3L0 404Z" fill="#001122"></path></svg>